<svg width="272" height="149" viewBox="0 0 272 149" fill="none" xmlns="http://www.w3.org/2000/svg">
<path d="M142.317 22.3866C142.531 22.2115 142.562 21.8964 142.387 21.683C142.211 21.4695 141.896 21.4384 141.683 21.6135L142.317 22.3866ZM64.3171 86.3808L142.317 22.3866L141.683 21.6135L63.6829 85.6077L64.3171 86.3808Z" fill="#42A96D"/>
<path d="M65.3087 85.6067L64.9154 85.298L64.298 86.0847L64.6913 86.3934L65.3087 85.6067ZM143.691 148.393C143.909 148.564 144.223 148.526 144.393 148.309C144.564 148.092 144.526 147.777 144.309 147.607L143.691 148.393ZM64.6913 86.3934L143.691 148.393L144.309 147.607L65.3087 85.6067L64.6913 86.3934Z" fill="#42A96D"/>
<path d="M144.001 148.501C144.277 148.501 144.501 148.277 144.501 148.001C144.501 147.725 144.277 147.501 144.001 147.501L144.001 148.501ZM64 148.5L144.001 148.501L144.001 147.501L64 147.5L64 148.5Z" fill="#42A96D"/>
<path d="M64 147.994L65 22" stroke="#42A96D" stroke-width="2" stroke-linejoin="round"/>
<line x1="1" y1="149" x2="1" y2="22" stroke="#42A96D" stroke-width="2" stroke-linejoin="round"/>
<line x1="102" y1="148" x2="102" y2="22" stroke="#42A96D" stroke-width="2" stroke-linejoin="round"/>
<path d="M141 23.0001C141.552 23.0001 142 22.5524 142 22.0001C142 21.4478 141.552 21.0001 141 21.0001L141 23.0001ZM-2.14913e-07 23L141 23.0001L141 21.0001L2.14913e-07 21L-2.14913e-07 23Z" fill="#42A96D"/>
<line x1="2" y1="147.988" x2="37" y2="147.988" stroke="#42A96D" stroke-width="2" stroke-linejoin="round"/>
<line x1="36" y1="149" x2="36" y2="22" stroke="#42A96D" stroke-width="2" stroke-linejoin="round"/>
<line x1="37.0002" y1="84.9943" x2="64.0002" y2="85.0001" stroke="#42A96D" stroke-width="2" stroke-linejoin="round"/>
<rect x="65" y="22" width="1" height="1" fill="#D9D9D9"/>
<path d="M63 85L103 115.984V149H63V85Z" fill="#42A96D"/>
<path d="M65 22H103V53.5L65 86V22Z" fill="#42A96D"/>
<path d="M103 116L126.65 133.769L146 149H103V116Z" fill="#42A96D"/>
<path d="M102.713 21.0337L144 21L102.743 55.0999L102.713 21.0337Z" fill="#42A96D"/>
<path d="M102 21V54.5M102 149L102 115" stroke="black" stroke-width="2"/>
<rect y="21" width="37" height="127" fill="#42A96D"/>
</svg>
