<svg width="160" height="150" viewBox="0 0 157 131" fill="none" xmlns="http://www.w3.org/2000/svg">
<path d="M66.7534 65.9943L146.89 2.00009" stroke="#42A96D" stroke-linejoin="round"/>
<path d="M67.7808 66L148.945 128" stroke="#42A96D" stroke-linejoin="round"/>
<path d="M66.7534 128L148.946 128.001" stroke="#42A96D" stroke-linejoin="round"/>
<path d="M66.7534 127.994L67.7808 2.00015" stroke="#42A96D" stroke-width="2" stroke-linejoin="round"/>
<line x1="105.822" y1="128" x2="105.822" y2="1.99994" stroke="#42A96D" stroke-width="2" stroke-linejoin="round"/>
<line x1="2.05481" y1="129" x2="2.05481" y2="1.99994" stroke="#42A96D" stroke-width="2" stroke-linejoin="round"/>
<path d="M1 2.00005L145.863 2.00008" stroke="#42A96D" stroke-width="2" stroke-linejoin="round"/>
<line x1="3.05481" y1="127.988" x2="39.0137" y2="127.988" stroke="#42A96D" stroke-width="2" stroke-linejoin="round"/>
<line x1="38.0137" y1="129" x2="38.0137" y2="1.99994" stroke="#42A96D" stroke-width="2" stroke-linejoin="round"/>
<line y1="-1" x2="27.7397" y2="-1" transform="matrix(1 0.000207926 -0.000219476 1 39.0137 65.9943)" stroke="#42A96D" stroke-width="2" stroke-linejoin="round"/>
<line y1="-1" x2="27.7397" y2="-1" transform="matrix(1 0.000207926 -0.000219476 1 37.9863 26)" stroke="#42A96D" stroke-width="2" stroke-linejoin="round"/>
<path d="M65.726 65L106.822 95.9841V129H65.726V65Z" fill="#42A96D"/>
<path d="M67.7808 2.00003H106.822V33.5L67.7808 66V2.00003Z" fill="#42A96D"/>
<path d="M106.822 96L131.12 113.769L151 129H106.822V96Z" fill="#42A96D"/>
<path d="M102.747 39.4518L128.034 19.6105L148.734 2.59096L103.261 2.00001L102.747 39.4518Z" fill="#42A96D"/>
<path d="M105.795 1V34.5M105.795 129L105.795 95" stroke="black" stroke-width="2"/>
<rect x="1" y="1" width="38.0137" height="127" fill="#42A96D"/>
<path d="M2.54111 1.5H1.54111V2.5V64.5V129V130H2.54111H37.4726H38.4726V129V66.5H64.75L66.2674 129.024L66.2911 130H67.2671H151H153.966L151.605 128.204L107.308 94.5042V35.4803L147.516 3.28055L149.739 1.5H146.89H2.54111Z" stroke="#808080" stroke-width="2"/>
<rect x="37.9863" y="3" width="30.8219" height="24" fill="#42A96D"/>
<path d="M104.253 92V37.5L68.8082 66L104.253 92Z" stroke="#808080" stroke-width="2"/>
<path d="M39.0137 41V27H65.726V41H39.0137Z" stroke="#808080" stroke-width="2"/>
<path d="M35.9315 42H66.7534V65H35.9315V42Z" fill="#42A96D"/>
</svg>
